<?xml version="1.0" encoding="iso-8859-1"?>
<!-- Generator: Adobe Illustrator 19.0.0, SVG Export Plug-In . SVG Version: 6.00 Build 0)  -->
<svg version="1.1" id="Capa_1" xmlns="http://www.w3.org/2000/svg" xmlns:xlink="http://www.w3.org/1999/xlink" x="0px" y="0px"
	 viewBox="0 0 511.999 511.999" style="enable-background:new 0 0 511.999 511.999;" xml:space="preserve">
<path style="fill:#E4EAF8;" d="M181.121,331.189c-73.955-73.955-73.955-194.287-0.001-268.241
	c73.955-73.955,194.288-73.955,268.242-0.001s73.954,194.287-0.001,268.242C375.408,405.144,255.075,405.144,181.121,331.189z"/>
<path style="fill:#C2C7D0;" d="M201.082,331.189c-73.955-73.955-73.955-194.287,0-268.241
	C235.526,28.504,280.03,10.11,325.223,7.749c-51.841-2.708-104.591,15.686-144.102,55.198c-73.954,73.954-73.954,194.287,0,268.241
	c39.511,39.511,92.26,57.904,144.101,55.197C280.03,384.025,235.526,365.632,201.082,331.189z"/>
<path style="fill:#ABFFDB;" d="M315.242,353.579c-86.321,0-156.3-69.978-156.3-156.3s69.978-156.3,156.3-156.3
	s156.3,69.978,156.3,156.3S401.563,353.579,315.242,353.579z"/>
<path style="fill:#92E0C0;" d="M178.904,197.279c0-82.968,64.65-150.825,146.319-155.974c-3.302-0.208-6.627-0.326-9.981-0.326
	c-86.322,0-156.3,69.978-156.3,156.3c0,89.824,75.701,161.684,166.281,155.974C243.553,348.104,178.904,280.246,178.904,197.279z"/>
<path style="fill:#FF9052;" d="M314.012,67.801c-35.693,0-64.628,28.934-64.628,64.628v25.575c4.32-4.004,10.464-6.18,16.462-5.379
	v-3.221c0-2.56,2.186-4.582,4.721-4.391c24.987,1.795,50.416-6.145,69.643-18.705c1.795-1.173,4.172-0.881,5.63,0.687
	c16.438,17.669,16.339,16.985,16.339,19.292v6.324c6.575-0.985,12.407,1.046,16.459,4.814v-24.996
	C378.64,96.735,349.707,67.801,314.012,67.801z"/>
<path style="fill:#FF8031;" d="M266.732,132.429c0-32.75,24.365-59.792,55.955-64.032c-2.839-0.381-5.73-0.596-8.673-0.596
	c-35.694,0-64.628,28.934-64.628,64.628v25.575c4.319-4.004,10.464-6.18,16.462-5.379v-3.221c0-0.994,0.332-1.904,0.884-2.639
	V132.429z"/>
<path style="fill:#E4EAF8;" d="M361.325,150.043v35.403c0,0.383-0.02,0.763-0.029,1.145c12.528,1.897,22.341-7.155,22.341-18.273
	C383.637,157.18,373.816,148.171,361.325,150.043z"/>
<path style="fill:#FFBEAB;" d="M266.704,185.446v-35.389c-10.907-1.456-22.312,6.915-22.312,18.262
	c0,11.103,9.79,20.171,22.34,18.272C266.723,186.209,266.704,185.829,266.704,185.446z"/>
<g>
	<path style="fill:#C2C7D0;" d="M376.999,154.168c-4.003-3.322-9.512-5.048-15.674-4.125v35.403c0,0.384-0.02,0.763-0.029,1.145
		c6.18,0.935,11.697-0.795,15.703-4.122V154.168z"/>
	<path style="fill:#C2C7D0;" d="M266.704,182.471c-4.118-3.419-6.638-8.523-6.638-14.153c0-5.477,2.662-10.257,6.638-13.577v-4.685
		c-10.907-1.456-22.311,6.915-22.311,18.262c0,11.103,9.79,20.171,22.339,18.272c-0.009-0.382-0.028-0.763-0.028-1.145
		L266.704,182.471L266.704,182.471z"/>
</g>
<path style="fill:#E4EAF8;" d="M314.702,232.069c-10.441,0-19.616-2.866-27.122-7.661v25.364l27.005,33.334l27.005-33.334v-26.079
	C333.94,228.969,324.678,232.069,314.702,232.069z"/>
<path style="fill:#C2C7D0;" d="M304.875,231.176c-6.439-1.195-12.246-3.542-17.295-6.768v25.364l17.295,21.348V231.176z"/>
<path style="fill:#FFFFFF;" d="M413.031,275.726l-71.441-27.667l-27.004,33.334l-27.005-33.334l-71.366,27.667
	c0,0-14.15,5.839-21.736,20.781c62.368,75.815,177.966,76.064,240.751,0.928C427.771,281.802,413.031,275.726,413.031,275.726z"/>
<path style="fill:#ABFFDB;" d="M212.391,293.925c-1.206-1.529-1.434-3.642-0.545-5.375c4.333-8.443,10.756-13.956,15.485-17.134
	l-2.118,0.821c-5.268,2.043-21.573,6.211-30.738,24.266c0.001,0.001,0.002,0.002,0.003,0.003l0,0
	c2.661,3.327,7.911,9.1,12.608,13.602v-0.016c31.524,30.232,73.933,45.947,118.137,43.16
	C279.476,350.369,239.083,327.796,212.391,293.925z"/>
<path style="fill:#FFFFFF;" d="M345.842,125.284c-1.459-1.568-3.836-1.859-5.63-0.687c-19.227,12.56-44.656,20.501-69.643,18.705
	c-2.534-0.192-4.721,1.83-4.721,4.391v38.61c0,24.814,19.444,47.479,48.854,47.479c26.181,0,47.48-21.299,47.48-47.479v-41.727
	C362.181,142.269,362.281,142.952,345.842,125.284z"/>
<path style="fill:#E4EAF8;" d="M283.143,186.303v-42.9c-4.183,0.223-8.385,0.201-12.574-0.1c-2.534-0.192-4.721,1.83-4.721,4.391
	v38.61c0,24.814,19.444,47.479,48.854,47.479c2.714,0,5.37-0.242,7.96-0.681C300.26,229.301,283.143,209.769,283.143,186.303z"/>
<g>
	<path style="fill:#ABFFDB;" d="M347.192,298.52l20.194-40.471l-25.795-9.99l-27.005,33.334l26.328,18.699
		C343.046,301.605,346.025,300.86,347.192,298.52z"/>
	<path style="fill:#ABFFDB;" d="M282.016,298.52l-20.194-40.471l25.795-9.99l27.005,33.334l-26.328,18.699
		C286.163,301.605,283.184,300.86,282.016,298.52z"/>
</g>
<path style="fill:#6DC296;" d="M314.62,281.415v-0.023l-0.016,0.012l-0.016-0.012v0.023l-19.15,13.601l9.052,13.624
	c7.301,0,12.927,0,20.228,0l9.052-13.624L314.62,281.415z"/>
<path style="fill:#5FA77E;" d="M324.187,288.21l-9.567-6.795v-0.023l-0.016,0.012l-0.017-0.012v0.023l-19.15,13.601l9.052,13.624
	c7.043,0,12.513,0,19.166,0l-7.433-11.186c-0.902-1.358-0.563-3.188,0.767-4.132L324.187,288.21z"/>
<path style="fill:#ABFFDB;" d="M330.702,352.818l-5.985-44.178c-7.298,0-12.927,0-20.229,0l-5.967,44.047
	C309.267,353.83,319.945,353.874,330.702,352.818z"/>
<path style="fill:#92E0C0;" d="M304.49,308.64l-5.967,44.047c6.817,0.725,12.887,0.952,19.049,0.861l6.082-44.91
	C316.974,308.64,311.559,308.64,304.49,308.64z"/>
<path style="fill:#FFC850;" d="M30.32,498.579l-16.065-16.065c-8.39-8.39-8.39-22.121,0-30.51l110.131-110.131
	c4.658-4.658,12.28-4.658,16.938,0l28.769,28.769c4.658,4.658,4.658,12.28,0,16.939l-111,110.999
	C51.18,506.492,38.233,506.492,30.32,498.579z"/>
<path style="fill:#FEA82F;" d="M26.135,468.348L140.73,353.753c2.464-2.465,5.759-3.612,9.006-3.468l-8.412-8.412
	c-4.658-4.658-12.28-4.658-16.937,0L14.255,452.004c-8.39,8.39-8.39,22.12,0,30.51l6.225,6.225
	C18.76,481.654,20.629,473.854,26.135,468.348z"/>
<rect x="78.504" y="386.138" transform="matrix(-0.7071 -0.7071 0.7071 -0.7071 -94.465 763.1587)" style="fill:#FF9052;" width="64.638" height="30.012"/>
<rect x="80.013" y="375.364" transform="matrix(-0.7071 0.7071 -0.7071 -0.7071 434.6856 590.6324)" style="fill:#FF8031;" width="30.012" height="19.956"/>
<g>
	<path style="fill:#474D54;" d="M337.233,306.437c2.009,1.427,4.387,2.172,6.8,2.172c0.953,0,1.911-0.116,2.855-0.352
		c3.335-0.833,6.127-3.076,7.662-6.151c0,0,0,0,0-0.001l17.171-34.414l39.225,15.191c0.752,0.332,12.03,5.511,17.996,17.431
		c1.311,2.621,3.954,4.137,6.699,4.137c1.126,0,2.269-0.255,3.345-0.792c3.697-1.85,5.194-6.348,3.344-10.045
		c-8.72-17.423-25.027-24.303-25.718-24.588c-0.05-0.021-0.1-0.041-0.15-0.06l-66.733-25.844v-13.792
		c10.42-8.372,17.738-20.455,19.929-34.224c5.2-0.644,10.016-2.746,14.017-6.187c5.72-4.92,9.002-12.077,9.002-19.636
		c0-6.044-2.096-11.83-5.859-16.42v-20.364c0-33.118-22.405-61.898-54.484-69.988c-4.011-1.013-8.078,1.419-9.089,5.428
		c-1.011,4.009,1.419,8.078,5.428,9.089c25.42,6.41,43.174,29.22,43.174,55.471v11.352c-0.505-0.106-1.013-0.198-1.526-0.274
		c-0.023-0.503-0.068-0.968-0.146-1.416l-0.001-0.007c-0.005-0.028-0.01-0.055-0.015-0.083c0-0.001-0.001-0.003-0.001-0.004
		c-0.005-0.028-0.01-0.055-0.016-0.083c0-0.002-0.001-0.004-0.001-0.006c-0.005-0.026-0.01-0.052-0.016-0.078
		c-0.001-0.004-0.002-0.009-0.003-0.013c-0.005-0.023-0.01-0.045-0.015-0.068c-0.002-0.007-0.003-0.015-0.005-0.022
		c-0.005-0.021-0.009-0.042-0.014-0.063c-0.002-0.007-0.003-0.015-0.005-0.022c-0.027-0.115-0.056-0.228-0.088-0.341
		c-0.001-0.002-0.001-0.004-0.002-0.006c-0.008-0.027-0.016-0.054-0.023-0.081l0,0c-0.008-0.027-0.016-0.054-0.025-0.082
		c-0.001-0.005-0.003-0.01-0.004-0.014c-0.007-0.024-0.015-0.048-0.023-0.072c-0.001-0.004-0.002-0.007-0.004-0.011
		c-0.008-0.024-0.016-0.048-0.024-0.072c-0.002-0.006-0.004-0.012-0.006-0.019c-0.008-0.022-0.015-0.044-0.023-0.067
		c-0.002-0.005-0.004-0.011-0.006-0.016c-0.008-0.024-0.017-0.048-0.026-0.072c-0.001-0.004-0.003-0.008-0.004-0.011
		c-0.009-0.025-0.019-0.051-0.028-0.076c-0.001-0.003-0.002-0.006-0.003-0.009c-0.009-0.023-0.017-0.045-0.026-0.068
		c-0.003-0.007-0.006-0.014-0.008-0.021c-0.055-0.141-0.116-0.282-0.181-0.426c-0.002-0.004-0.004-0.008-0.006-0.012
		c-0.012-0.026-0.024-0.051-0.036-0.077c-0.001-0.003-0.002-0.005-0.004-0.008c-0.012-0.025-0.024-0.05-0.036-0.076
		c-0.003-0.006-0.006-0.012-0.009-0.018c-0.011-0.023-0.023-0.047-0.035-0.07c-0.003-0.006-0.006-0.013-0.01-0.019
		c-0.01-0.02-0.02-0.039-0.03-0.059c-0.006-0.012-0.012-0.023-0.018-0.035c-0.01-0.02-0.021-0.04-0.031-0.06
		c-0.004-0.007-0.008-0.014-0.011-0.021c-0.015-0.028-0.029-0.055-0.044-0.083l0,0c-0.015-0.028-0.031-0.056-0.046-0.084
		c-0.002-0.003-0.003-0.006-0.005-0.009c-0.099-0.18-0.208-0.362-0.325-0.55c-0.003-0.005-0.006-0.01-0.01-0.015
		c-0.036-0.057-0.072-0.114-0.109-0.172c-0.005-0.008-0.011-0.016-0.016-0.024c-0.017-0.026-0.033-0.051-0.05-0.077
		c-0.003-0.005-0.006-0.01-0.01-0.014c-0.018-0.027-0.036-0.055-0.055-0.082c-0.004-0.005-0.007-0.011-0.011-0.016
		c-0.017-0.025-0.034-0.051-0.052-0.077c-0.005-0.008-0.011-0.016-0.016-0.024c-0.157-0.23-0.327-0.467-0.513-0.714
		c-0.003-0.003-0.005-0.007-0.008-0.01c-0.079-0.106-0.161-0.213-0.246-0.321l0,0c-0.028-0.036-0.057-0.073-0.086-0.11l-0.003-0.004
		c-1.535-1.955-3.957-4.538-7.765-8.598c-2.096-2.235-4.721-5.032-8.008-8.567c-3.397-3.652-8.602-4.742-13.081-2.96
		c-0.002,0.001-0.005,0.002-0.007,0.003c-0.137,0.055-0.272,0.112-0.407,0.172c-0.157,0.07-0.313,0.143-0.468,0.22
		c-0.107,0.053-0.213,0.107-0.318,0.163c-0.315,0.168-0.625,0.351-0.929,0.55c-0.709,0.463-1.423,0.917-2.142,1.363
		c-2.51,1.556-5.085,3.009-7.713,4.356c-0.035,0.018-0.07,0.036-0.105,0.054c-0.724,0.369-1.45,0.731-2.182,1.085
		c-16.48,7.968-34.849,11.808-52.119,10.724c-0.265-0.017-0.53-0.034-0.795-0.053c-0.034-0.003-0.068-0.004-0.102-0.006
		c-3.183-0.215-6.347,0.88-8.725,3.016c-0.047,0.042-0.094,0.083-0.14,0.126c-0.07,0.065-0.14,0.132-0.208,0.198
		c-0.009,0.009-0.018,0.018-0.027,0.026c-0.064,0.062-0.126,0.125-0.189,0.189c-0.013,0.013-0.026,0.027-0.039,0.04
		c-0.061,0.063-0.121,0.127-0.181,0.191c-0.011,0.012-0.023,0.025-0.034,0.037c-0.056,0.061-0.112,0.123-0.167,0.186
		c-0.01,0.011-0.02,0.022-0.03,0.034c-0.053,0.061-0.106,0.123-0.158,0.186c-0.015,0.018-0.031,0.037-0.046,0.055
		c-0.051,0.061-0.101,0.123-0.15,0.185c-0.018,0.023-0.036,0.046-0.054,0.069c-0.048,0.062-0.096,0.125-0.144,0.188
		c-0.015,0.02-0.03,0.04-0.045,0.06c-0.04,0.054-0.08,0.109-0.119,0.164c-0.018,0.026-0.036,0.051-0.055,0.077
		c-0.04,0.057-0.079,0.114-0.118,0.171c-0.018,0.026-0.036,0.052-0.053,0.079c-0.041,0.062-0.081,0.123-0.121,0.186
		c-0.018,0.029-0.037,0.058-0.055,0.087c-0.037,0.059-0.074,0.119-0.11,0.179c-0.019,0.031-0.037,0.062-0.055,0.093
		c-0.029,0.049-0.057,0.098-0.086,0.147c-0.019,0.033-0.038,0.066-0.057,0.1c-0.032,0.057-0.063,0.114-0.094,0.171
		c-0.017,0.031-0.034,0.063-0.05,0.094c-0.033,0.063-0.066,0.126-0.098,0.19c-0.016,0.032-0.032,0.064-0.048,0.097
		c-0.028,0.056-0.055,0.112-0.082,0.169c-0.018,0.038-0.036,0.076-0.053,0.115c-0.023,0.05-0.046,0.1-0.068,0.15
		c-0.015,0.034-0.03,0.068-0.045,0.102c-0.028,0.064-0.055,0.128-0.081,0.192c-0.012,0.029-0.024,0.058-0.036,0.088
		c-0.028,0.07-0.056,0.141-0.083,0.212c-0.01,0.028-0.021,0.055-0.031,0.083c-0.007,0.02-0.015,0.04-0.022,0.059
		c-0.75,0.12-1.496,0.27-2.236,0.451v-11.647c0-25.274,16.214-47.25,40.347-54.682c3.95-1.217,6.167-5.407,4.95-9.357
		c-1.218-3.951-5.407-6.166-9.357-4.95c-30.452,9.379-50.911,37.104-50.911,68.991v20.903c-3.802,4.533-5.856,10.045-5.856,15.882
		c0,7.56,3.281,14.719,9.002,19.638c4.009,3.448,8.837,5.55,14.051,6.189c2.22,13.461,9.533,26.38,21.077,35.141l-0.028,12.868
		l-66.672,25.847c-0.049,0.019-0.099,0.039-0.147,0.059c-0.69,0.284-16.996,7.165-25.718,24.588
		c-1.85,3.697-0.353,8.194,3.344,10.045c3.696,1.848,8.193,0.353,10.044-3.344c5.975-11.935,17.299-17.119,18.001-17.433
		l39.182-15.19l17.172,34.415c0,0,0,0,0,0.001c1.535,3.076,4.328,5.318,7.662,6.151c0.944,0.237,1.902,0.352,2.855,0.352
		c2.413,0,4.791-0.746,6.799-2.172l0.856-0.608l3.147,4.736l-6.904,40.786c-0.343,2.03,0.165,4.111,1.403,5.755
		c1.24,1.644,3.101,2.705,5.147,2.933c6.095,0.681,12.232,1.021,18.371,1.021c6.125,0,12.252-0.339,18.336-1.018
		c2.046-0.229,3.908-1.289,5.147-2.932c1.24-1.644,1.748-3.726,1.404-5.756l-6.904-40.791l3.146-4.736L337.233,306.437z
		 M342.834,292.053l-4.022-2.857c-0.021-0.015-0.041-0.03-0.061-0.045l-12.701-9.021l15.636-19.301l2.942-3.631l13.072,5.063
		L342.834,292.053z M373.914,177.566c-1.057,0.908-2.262,1.601-3.572,2.067v-20.702c0.568,0.202,1.117,0.446,1.642,0.733
		c0.015,0.008,0.03,0.017,0.045,0.025c0.049,0.027,0.098,0.055,0.147,0.083c0.054,0.031,0.107,0.062,0.16,0.093
		c0.012,0.007,0.024,0.014,0.036,0.021c0.665,0.398,1.289,0.866,1.866,1.403c0.04,0.038,0.081,0.074,0.122,0.111
		c2.134,2.048,3.348,4.889,3.348,7.883C377.706,172.474,376.324,175.493,373.914,177.566z M251.572,169.28
		c0-3.456,1.906-5.923,3.3-7.264c0.054-0.047,0.107-0.094,0.159-0.143c1.144-1.06,2.48-1.908,3.906-2.509v20.27
		c-1.31-0.465-2.516-1.158-3.572-2.066C252.955,175.495,251.572,172.475,251.572,169.28z M273.932,187.794
		c0.004-0.134,0.005-0.268,0.001-0.403l-0.013-0.443c-0.006-0.174-0.013-0.347-0.013-0.521v-35.394
		c23.33,0.939,48.115-5.787,68.861-18.712c0.916,0.982,1.774,1.9,2.579,2.761c0.058,0.062,0.116,0.124,0.173,0.185
		c0.134,0.143,0.265,0.284,0.396,0.423c0.128,0.137,0.254,0.27,0.378,0.404c0.077,0.082,0.154,0.164,0.23,0.245
		c0.301,0.322,0.595,0.636,0.88,0.94c0.588,0.628,1.142,1.218,1.663,1.774c2.904,3.096,5.182,5.525,6.302,6.819v40.557
		c0,0.164-0.007,0.326-0.013,0.489l-0.015,0.476c-0.003,0.146-0.002,0.29,0.003,0.434c-0.448,12.964-7.088,24.382-17.048,31.383
		c-0.103,0.064-0.204,0.13-0.303,0.199c-5.214,3.596-11.119,5.873-17.315,6.705c-0.035,0.005-0.07,0.01-0.105,0.014
		c-0.099,0.013-0.199,0.026-0.298,0.038c-0.044,0.005-0.089,0.011-0.133,0.016c-0.188,0.023-0.375,0.044-0.564,0.064
		c-0.031,0.003-0.062,0.007-0.093,0.01c-0.084,0.009-0.168,0.017-0.251,0.025c-0.068,0.007-0.135,0.013-0.203,0.019
		c-0.075,0.007-0.15,0.014-0.226,0.02c-0.082,0.007-0.165,0.014-0.247,0.021c-0.072,0.006-0.143,0.012-0.215,0.017
		c-0.132,0.01-0.264,0.019-0.396,0.028c-0.059,0.004-0.117,0.007-0.176,0.011c-0.098,0.006-0.197,0.012-0.294,0.017
		c-0.057,0.003-0.113,0.006-0.17,0.009c-0.118,0.006-0.236,0.011-0.353,0.016c-0.034,0.001-0.069,0.003-0.103,0.004
		c-0.149,0.006-0.297,0.01-0.446,0.014c-0.047,0.001-0.093,0.002-0.14,0.003c-0.115,0.003-0.231,0.005-0.346,0.007
		c-0.043,0.001-0.087,0.001-0.13,0.002c-0.155,0.002-0.31,0.003-0.466,0.003C290.001,226.47,274.631,207.041,273.932,187.794z
		 M315.327,241.441c0.192,0,0.383-0.001,0.575-0.003c0.027,0,0.054,0,0.081-0.001c0.184-0.002,0.367-0.005,0.551-0.009
		c0.032-0.001,0.064-0.001,0.095-0.002c0.185-0.004,0.369-0.01,0.553-0.016c0.024-0.001,0.047-0.002,0.071-0.003
		c0.194-0.007,0.387-0.014,0.581-0.023c0.002,0,0.004,0,0.006,0c0.199-0.009,0.397-0.019,0.595-0.03
		c0.012-0.001,0.024-0.001,0.036-0.002c0.191-0.011,0.381-0.023,0.572-0.036c0.023-0.002,0.046-0.003,0.068-0.005
		c0.189-0.013,0.377-0.027,0.565-0.042c0.021-0.002,0.042-0.003,0.063-0.005c0.193-0.015,0.384-0.032,0.576-0.049l0.032-0.003
		c0.406-0.037,0.811-0.078,1.216-0.124c0.001,0,0.002,0,0.003,0c0.198-0.022,0.395-0.046,0.593-0.071
		c0.014-0.002,0.029-0.004,0.043-0.005c0.196-0.025,0.39-0.05,0.585-0.077c0.009-0.001,0.018-0.002,0.028-0.004
		c0.2-0.027,0.399-0.056,0.598-0.085c0.001,0,0.002,0,0.002,0c0.613-0.091,1.222-0.192,1.827-0.302l0.01-0.002
		c3.28-0.6,6.458-1.491,9.508-2.647v7.698L315.229,269.7l-19.56-24.145l0.014-6.73c5.665,1.716,12.027,2.577,19.192,2.612
		C315.026,241.44,315.176,241.441,315.327,241.441z M272.761,262.261l13.043-5.052l18.583,22.938l-12.678,9.005
		c-0.027,0.019-0.053,0.039-0.08,0.058l-4.004,2.844L272.761,262.261z M306.444,345.833l4.985-29.455h7.599l4.986,29.457
		C318.164,346.176,312.293,346.174,306.444,345.833z M321.34,301.406h-12.223l-2.824-4.25l8.935-6.346l8.935,6.346L321.34,301.406z"
		/>
	<path style="fill:#474D54;" d="M504.712,207.08c-4.116-0.38-7.76,2.654-8.137,6.771c-3.876,42.274-22.52,82.065-52.499,112.045
		c-34.354,34.353-80.105,53.273-128.828,53.273s-94.474-18.92-128.828-53.273c-34.354-34.354-53.274-80.106-53.274-128.828
		s18.92-94.474,53.273-128.828c71.037-71.035,186.621-71.036,257.656,0c29.978,29.978,48.623,69.77,52.498,112.045
		c0.377,4.117,4.026,7.145,8.137,6.771c4.117-0.377,7.148-4.02,6.771-8.137c-4.194-45.751-24.373-88.816-56.821-121.264
		c-76.873-76.873-201.955-76.872-278.829,0c-37.182,37.182-57.658,86.693-57.658,139.413c0,50.179,18.55,97.45,52.397,133.95
		l-14.953,14.559l-8.997-8.997c-7.588-7.589-19.937-7.589-27.524,0L8.969,446.711c-5.471,5.471-8.485,12.768-8.485,20.548
		s3.013,15.077,8.485,20.549l16.065,16.065c5.24,5.241,12.229,8.127,19.679,8.127s14.439-2.886,19.679-8.127l110.999-110.999
		c3.667-3.667,5.686-8.555,5.686-13.763c0-5.208-2.019-10.096-5.686-13.763l-9.184-9.184l14.947-14.554
		c36.52,33.932,83.849,52.53,134.094,52.53c52.721,0,102.232-20.477,139.413-57.658c32.448-32.448,52.628-75.514,56.822-121.264
		C511.861,211.101,508.829,207.457,504.712,207.08z M164.806,382.286l-111,111c-2.413,2.412-5.642,3.742-9.094,3.742
		s-6.68-1.329-9.093-3.742l0,0l-16.065-16.065c-5.492-5.493-5.492-14.43,0-19.924l110.131-110.131
		c0.86-0.86,2.018-1.291,3.176-1.291c1.158,0,2.316,0.43,3.176,1.291l28.769,28.769
		C166.527,377.656,166.527,380.565,164.806,382.286z"/>
</g>
<g>
</g>
<g>
</g>
<g>
</g>
<g>
</g>
<g>
</g>
<g>
</g>
<g>
</g>
<g>
</g>
<g>
</g>
<g>
</g>
<g>
</g>
<g>
</g>
<g>
</g>
<g>
</g>
<g>
</g>
</svg>
